# xmcd
#
# Track frame offsets: 
#        160
#        10335
#        22050
#        32760
#        42385
#        52287
#        63590
#        74215
#        85497
#        96690
#        106772
#        119627
#        130150
#        140850
#
# Disc length: 2012 seconds
#
# Revision: 3
# Processed by: cddbd v1.5.2PL0 Copyright (c) Steve Scherf et al.
# Submitted via: ExactAudioCopy v1.1
#
DISCID=e407da0e
DTITLE=Buck Owens - You're For Me (1962)
DYEAR=1995
DGENRE=Country
TTITLE0=You're For Me
TTITLE1=Fool Me Again
TTITLE2=Down On The Corner Of Love
TTITLE3=Mexican Polka
TTITLE4=Mirro, Mirror On The Wall
TTITLE5=Bad Bad Dream
TTITLE6=Under The Influence Of Love
TTITLE7=Nobody's Fool But Yours
TTITLE8=House Down The Block
TTITLE9=Country Polka
TTITLE10=Down To The River
TTITLE11=Blues For Life
TTITLE12=Under The Influence Of Love
TTITLE13=You're For Me
EXTD=
EXTT0=
EXTT1=
EXTT2=
EXTT3=
EXTT4=
EXTT5=
EXTT6=
EXTT7=
EXTT8=
EXTT9=
EXTT10=
EXTT11=
EXTT12=
EXTT13=
PLAYORDER=
